<?xml version="1.0" standalone="no"?>
<!DOCTYPE svg PUBLIC "-//W3C//DTD SVG 20010904//EN"
 "http://www.w3.org/TR/2001/REC-SVG-20010904/DTD/svg10.dtd">
<svg version="1.0" xmlns="http://www.w3.org/2000/svg"
 width="400.000000pt" height="400.000000pt" viewBox="0 0 400.000000 400.000000"
 preserveAspectRatio="xMidYMid meet">
<metadata>
Created by potrace 1.14, written by Peter Selinger 2001-2017
</metadata>
<g transform="translate(0.000000,400.000000) scale(0.100000,-0.100000)"
fill="#000000" stroke="none">
<path d="M0 2000 l0 -2000 2000 0 2000 0 0 2000 0 2000 -2000 0 -2000 0 0
-2000z m1503 1906 c17 -13 17 -17 4 -49 -8 -19 -20 -37 -25 -41 -11 -6 -82 23
-82 33 0 3 9 21 20 39 21 35 52 41 83 18z m-368 -227 c4 -5 4 -21 1 -33 -7
-28 -53 -44 -70 -25 -8 9 -7 10 4 5 8 -4 7 -1 -4 8 -20 16 -13 41 10 32 8 -3
13 -2 13 2 -3 17 2 22 20 22 11 0 23 -5 26 -11z m-350 -9 c3 -5 1 -10 -5 -10
-6 0 -9 -4 -5 -9 7 -12 -26 -31 -54 -31 -15 0 -21 6 -21 21 0 16 5 20 19 16
14 -3 18 -1 14 9 -6 16 42 20 52 4z m606 -42 c10 -161 -29 -300 -152 -537
l-80 -153 -2 -162 c-1 -88 -6 -169 -11 -180 -8 -16 -6 -17 12 -12 12 3 31 8
41 11 27 8 42 -23 44 -95 2 -54 17 -100 17 -52 0 12 4 22 9 22 4 0 8 8 8 18 0
38 4 50 23 72 20 24 26 41 13 39 -32 -5 -35 2 -29 59 4 31 9 80 12 107 3 28 7
57 10 65 3 8 8 44 10 80 2 36 6 75 8 88 3 13 8 51 11 85 19 194 21 197 136
197 108 0 149 -41 149 -150 0 -65 16 -77 18 -14 1 21 7 44 15 51 8 9 62 17
157 23 80 5 182 12 228 16 72 6 82 5 82 -10 0 -19 4 -20 55 -1 22 8 67 14 101
15 53 0 63 -3 86 -27 34 -37 61 -117 52 -157 -9 -44 -33 -88 -44 -81 -6 3 -7
0 -4 -8 5 -14 -62 -65 -78 -59 -5 1 -8 -2 -8 -7 0 -6 -12 -16 -27 -23 -16 -7
-29 -22 -29 -33 -1 -11 -3 -36 -5 -55 -4 -33 -3 -35 35 -41 44 -7 74 -37 83
-81 10 -49 20 -40 27 24 3 34 8 63 10 66 3 2 29 6 60 9 52 5 56 4 65 -18 l10
-24 7 22 c5 17 16 24 49 29 57 8 79 3 84 -21 5 -31 24 -36 48 -13 12 12 27 17
34 13 7 -5 10 -4 6 2 -9 15 16 23 68 23 57 0 92 -14 100 -40 4 -12 16 -31 26
-41 10 -10 19 -26 19 -34 0 -24 20 -17 20 8 1 12 9 38 18 57 17 34 19 35 77
35 41 0 60 -4 60 -12 0 -23 20 -19 23 4 4 27 35 37 110 34 25 -1 32 -5 32 -21
0 -20 15 -28 22 -11 2 5 32 11 68 13 63 3 65 2 64 -21 l-1 -25 21 27 c17 22
30 27 64 27 23 0 42 -4 42 -10 0 -5 7 -7 15 -4 9 4 18 -1 21 -11 4 -9 17 -20
29 -25 12 -5 25 -17 27 -28 4 -12 -34 -98 -101 -233 l-106 -214 -39 2 c-21 2
-44 7 -51 13 -7 6 -23 6 -46 0 -74 -22 -136 -5 -113 31 3 5 1 9 -4 9 -6 0 -13
-11 -16 -24 -6 -26 -31 -36 -88 -36 -34 0 -38 3 -38 25 0 14 -4 25 -10 25 -5
0 -10 -9 -10 -20 0 -18 -7 -20 -65 -20 -63 0 -65 1 -65 25 0 31 -11 32 -36 4
-27 -31 -76 -49 -129 -49 -38 0 -52 5 -76 29 -26 26 -35 48 -30 74 1 5 -3 6
-9 2 -5 -3 -10 -16 -10 -28 -1 -60 -29 -87 -90 -87 -25 0 -32 7 -49 43 -18 40
-19 40 -21 15 -2 -16 -3 -33 -4 -39 -2 -17 -34 -27 -83 -28 -36 -1 -43 2 -43
18 0 10 -6 30 -13 45 l-14 26 -11 -24 c-19 -42 -76 -77 -135 -83 -93 -9 -121
22 -130 146 -3 40 -10 77 -16 82 -6 5 -9 6 -6 3 3 -4 0 -13 -6 -20 -8 -10 -8
-23 0 -47 6 -18 14 -56 17 -83 5 -50 5 -51 -35 -77 -51 -34 -89 -35 -100 -4
-5 12 -7 25 -4 30 2 4 -1 7 -6 7 -6 0 -11 -11 -11 -25 0 -14 -8 -29 -19 -35
-28 -14 -108 -13 -113 3 -6 16 5 155 18 242 3 17 6 44 8 61 1 17 6 35 9 41 8
13 -40 10 -53 -3 -5 -5 -11 -35 -14 -66 -3 -31 -8 -63 -11 -70 -2 -7 -7 -38
-10 -68 -20 -172 -17 -164 -50 -171 -60 -13 -93 -10 -97 9 -3 16 4 82 18 177
6 38 9 63 16 130 3 26 -1 30 -24 33 -14 2 -46 -2 -70 -9 l-43 -12 43 -19 c24
-11 42 -26 43 -36 3 -44 -1 -124 -6 -132 -3 -5 0 -12 6 -16 7 -4 7 -9 2 -13
-6 -3 -17 -26 -25 -51 -23 -70 -102 -110 -218 -110 -36 0 -40 3 -40 24 0 14
-4 28 -10 31 -6 4 -10 -8 -10 -29 0 -33 -2 -35 -50 -45 -79 -17 -83 -16 -78
24 5 46 -17 47 -32 1 -15 -47 -29 -56 -95 -63 l-56 -6 6 39 c10 61 26 134 45
202 10 34 15 64 10 67 -4 3 -10 -9 -14 -25 -3 -17 -12 -30 -20 -30 -16 0 -39
57 -29 74 3 6 3 8 -2 4 -9 -9 -57 60 -50 72 3 5 -8 3 -26 -4 -17 -7 -36 -21
-41 -30 -5 -9 -13 -14 -17 -11 -5 2 -8 -3 -7 -13 0 -9 -5 -16 -12 -14 -8 1
-11 -2 -7 -8 8 -14 -52 -97 -76 -103 -10 -3 -26 1 -35 8 -16 11 -16 17 -4 61
8 27 24 73 37 103 17 38 22 63 17 84 l-6 30 -62 -7 c-71 -7 -148 -42 -195 -88
-45 -44 -85 -47 -92 -8 -4 23 12 70 22 64 5 -3 6 2 3 10 -15 39 188 387 235
403 25 9 51 35 45 44 -3 5 5 9 17 9 18 0 21 -5 17 -30 -3 -16 -1 -30 4 -30 5
0 6 -5 2 -12 -4 -7 -3 -8 5 -4 6 4 9 11 6 16 -6 10 117 100 185 135 57 29 67
41 122 145 74 138 99 183 119 211 10 15 19 30 19 33 0 11 53 61 62 58 5 -1 7
2 3 8 -9 14 14 42 28 33 5 -3 7 -2 4 4 -8 13 13 41 43 56 14 7 30 23 37 37 26
52 92 71 94 28z m280 -120 c11 -17 -3 -58 -20 -58 -28 0 -41 20 -29 45 10 22
38 30 49 13z m-891 -173 c0 -9 7 -18 15 -21 8 -4 15 -15 15 -25 0 -10 5 -19
10 -19 6 0 10 -7 10 -15 0 -8 -7 -15 -15 -15 -8 0 -15 -6 -15 -12 0 -13 -44
-38 -67 -38 -7 0 -13 -4 -13 -10 0 -5 -7 -10 -16 -10 -12 0 -15 7 -12 24 3 17
0 23 -11 22 -8 0 -16 4 -16 11 0 6 -3 15 -7 19 -13 12 -9 24 7 24 8 0 15 7 15
15 0 8 7 15 15 15 7 0 18 6 22 13 8 13 43 35 56 36 4 1 7 -6 7 -14z m-344
-157 c9 -14 -23 -38 -41 -32 -10 4 -12 -1 -8 -15 4 -17 1 -21 -19 -21 -31 0
-37 6 -31 31 3 10 14 19 24 19 11 0 22 7 25 15 7 18 40 20 50 3z"/>
<path d="M1338 3590 c-14 -10 -29 -16 -33 -12 -5 4 -5 2 -2 -4 3 -6 -9 -26
-28 -44 -19 -19 -35 -37 -35 -41 0 -3 13 -9 30 -12 16 -4 38 -15 49 -26 20
-20 20 -20 30 12 9 25 21 147 15 147 -1 0 -13 -9 -26 -20z"/>
<path d="M1185 3420 c4 -11 2 -20 -4 -20 -11 0 -47 -60 -43 -72 1 -5 -2 -8 -8
-8 -5 0 -21 -25 -35 -55 -17 -35 -31 -53 -38 -49 -7 4 -9 4 -5 -1 11 -11 -80
-183 -103 -196 -11 -5 -25 -7 -32 -3 -6 4 -9 4 -5 -1 14 -15 -92 -81 -107 -67
-5 4 -5 2 -2 -4 8 -15 -40 -47 -55 -38 -6 4 -8 3 -5 -3 9 -14 -99 -95 -121
-91 -11 3 -16 12 -15 26 2 12 1 22 -1 22 -6 0 -80 -111 -88 -133 -5 -11 -13
-15 -19 -11 -7 4 -9 3 -5 -4 6 -10 -72 -184 -85 -190 -4 -2 -5 -12 -2 -23 5
-20 6 -20 20 1 8 11 18 18 23 15 4 -3 10 1 13 9 3 7 24 23 47 35 23 12 38 16
34 9 -6 -10 -5 -10 7 -1 17 14 117 24 164 16 29 -5 33 -9 38 -45 6 -44 -10
-91 -26 -81 -6 3 -7 1 -4 -5 10 -15 -3 -43 -16 -35 -7 4 -8 0 -3 -12 3 -10 0
-28 -8 -40 -14 -21 -14 -24 0 -29 8 -3 12 -2 9 4 -3 5 4 14 15 20 11 6 18 16
14 22 -4 5 -3 13 2 17 11 8 31 39 44 69 8 19 23 28 33 20 2 -2 11 5 21 15 10
9 21 17 26 17 10 0 80 -89 80 -101 0 -5 5 -9 10 -9 6 0 10 5 10 12 0 7 11 49
25 94 27 89 35 96 105 98 l35 1 1 175 c1 169 6 216 25 204 5 -3 6 2 3 10 -4 9
0 18 9 22 9 3 13 12 10 20 -3 8 0 14 6 14 6 0 11 6 11 14 0 8 7 17 16 20 8 3
13 10 10 15 -9 14 5 42 17 34 5 -3 7 -1 4 4 -4 6 6 40 23 74 16 35 38 88 49
117 l21 52 -23 0 c-12 0 -37 9 -56 21 -50 30 -74 33 -66 9z"/>
<path d="M1413 3243 c-12 -4 -18 -29 -28 -108 -3 -22 -11 -96 -20 -165 -8 -69
-16 -134 -18 -145 -2 -11 1 -23 7 -27 8 -5 7 -8 -2 -8 -7 0 -11 -4 -8 -8 3 -5
-1 -32 -8 -60 -13 -46 -12 -50 3 -43 35 19 76 34 84 33 4 -1 7 3 7 9 0 5 5 7
12 3 6 -4 8 -3 5 3 -4 6 1 17 10 24 25 21 77 108 95 159 14 39 42 177 42 205
0 36 -20 79 -51 105 -28 25 -42 30 -77 29 -23 -2 -47 -4 -53 -6z m92 -79 c12
-13 15 -36 14 -110 -1 -52 -5 -94 -10 -94 -5 0 -6 -6 -3 -14 3 -8 -11 -48 -32
-90 -45 -93 -72 -101 -65 -21 1 11 2 32 3 47 1 15 5 25 10 21 6 -3 8 3 7 13
-2 11 0 25 5 33 6 10 5 12 -2 7 -7 -4 -12 -2 -12 3 0 6 5 11 10 11 6 0 10 5
10 11 0 5 -4 8 -8 5 -5 -3 -5 18 0 47 6 29 9 65 9 80 -2 57 31 84 64 51z"/>
<path d="M1464 3047 c0 -12 -4 -49 -8 -82 -6 -45 -5 -57 4 -49 14 13 25 140
13 147 -4 3 -8 -5 -9 -16z"/>
<path d="M1970 3173 c-59 -8 -55 2 -79 -200 -5 -46 -12 -86 -14 -90 -3 -5 -8
-35 -12 -67 l-6 -59 43 6 c80 11 123 30 126 56 4 23 2 23 -42 17 -45 -7 -52
-3 -47 27 1 4 4 27 7 49 6 53 16 65 55 66 57 1 64 44 9 52 -35 5 -36 6 -31 75
1 11 14 15 50 15 55 0 63 6 54 38 -6 23 -24 25 -113 15z"/>
<path d="M2206 3168 c3 -5 -1 -8 -8 -8 -22 0 -49 -23 -53 -45 -2 -11 -4 -20
-5 -20 -2 0 -4 -17 -14 -125 -6 -64 -15 -154 -17 -168 -5 -29 3 -42 25 -42 26
0 33 11 40 70 8 60 24 93 43 85 10 -3 14 -3 10 1 -3 4 6 14 22 23 106 61 140
145 85 211 -24 28 -31 31 -79 28 -29 -1 -51 -6 -49 -10z m84 -92 c0 -53 -30
-96 -67 -96 -25 0 -25 1 -19 53 3 28 6 60 6 70 0 13 9 17 40 17 l40 0 0 -44z"/>
<path d="M1720 3153 c-39 -8 -47 -19 -54 -81 -4 -31 -9 -71 -12 -87 -3 -17 -7
-43 -8 -60 -2 -16 -9 -63 -16 -103 -11 -59 -11 -75 -1 -81 7 -5 45 2 84 14 59
17 73 26 75 44 3 21 1 22 -41 16 -27 -4 -47 -3 -51 3 -7 12 13 111 26 128 5 7
24 15 42 18 32 6 52 27 39 40 -4 3 -21 6 -40 6 -35 0 -37 5 -27 58 5 25 12 31
43 37 61 10 70 15 68 35 -1 17 -8 20 -52 19 -27 -1 -61 -4 -75 -6z"/>
<path d="M2080 3035 c0 -14 5 -25 10 -25 6 0 10 11 10 25 0 14 -4 25 -10 25
-5 0 -10 -11 -10 -25z"/>
<path d="M1846 3038 c-3 -7 -7 -39 -10 -72 -2 -32 -7 -60 -9 -62 -5 -5 -50
-14 -77 -17 -9 0 -16 -9 -16 -19 0 -15 8 -17 55 -14 52 4 55 6 56 33 1 15 5
42 9 58 13 60 16 105 6 105 -6 0 -12 -6 -14 -12z"/>
<path d="M1617 3023 c-3 -5 -8 -28 -12 -53 -13 -87 -52 -203 -66 -195 -5 4 -6
-1 -3 -9 8 -21 -107 -139 -128 -131 -9 4 -18 3 -21 -2 -6 -10 139 -4 169 7 18
7 22 17 23 60 0 28 3 56 6 61 4 5 8 30 10 56 2 27 6 59 10 73 8 36 22 140 19
140 -2 0 -5 -3 -7 -7z"/>
<path d="M2085 2969 c-4 -6 -5 -12 -2 -15 2 -3 7 2 10 11 7 17 1 20 -8 4z"/>
<path d="M2072 2925 c-12 -14 -28 -18 -73 -18 -11 0 -15 -6 -11 -19 3 -15 12
-19 36 -17 17 2 37 0 44 -5 7 -4 12 -2 13 6 0 7 3 25 5 41 5 31 4 32 -14 12z"/>
<path d="M565 2870 c-3 -5 -1 -10 4 -10 6 0 11 5 11 10 0 6 -2 10 -4 10 -3 0
-8 -4 -11 -10z"/>
<path d="M1970 2743 c-30 -8 -60 -15 -67 -15 -7 -1 -10 -5 -7 -9 2 -4 18 -4
34 1 17 5 30 7 30 5 0 -2 15 2 34 10 18 8 37 11 41 7 5 -4 5 -1 1 6 -4 6 -8
12 -9 11 -1 -1 -27 -8 -57 -16z"/>
<path d="M1479 2733 c-13 -16 -12 -17 4 -4 9 7 17 15 17 17 0 8 -8 3 -21 -13z"/>
<path d="M2061 2726 c-6 -7 -26 -17 -44 -21 -29 -6 -30 -7 -11 -15 20 -8 47
-57 47 -86 0 -21 3 -18 31 30 31 52 31 56 10 56 -12 0 -15 7 -12 25 6 28 -3
32 -21 11z"/>
<path d="M2103 2725 c0 -5 19 -10 42 -10 24 0 41 4 39 10 -2 6 -21 10 -42 10
-21 0 -39 -4 -39 -10z"/>
<path d="M2755 2698 c-28 -18 -54 -31 -58 -30 -5 1 -6 -2 -2 -8 3 -5 -3 -23
-14 -39 -11 -15 -18 -30 -16 -33 3 -3 -1 -22 -8 -44 -8 -21 -12 -45 -10 -51 3
-7 -1 -13 -9 -13 -10 0 -10 -2 -1 -8 8 -5 9 -19 4 -45 -5 -20 -5 -37 -1 -37 4
0 10 -13 13 -30 9 -42 60 -73 96 -57 68 29 122 108 143 210 7 34 17 65 23 69
6 5 6 8 -2 8 -7 0 -13 9 -13 20 0 22 -25 77 -44 96 -27 26 -52 24 -101 -8z
m70 -68 c8 -38 -4 -178 -16 -186 -5 -3 -7 -10 -4 -15 4 -5 -2 -22 -12 -39 -23
-39 -69 -43 -79 -5 -15 59 15 263 36 250 6 -3 7 1 4 9 -5 13 1 16 29 16 31 0
36 -4 42 -30z"/>
<path d="M2774 2609 c-3 -6 -2 -15 3 -20 5 -5 9 -1 9 11 0 23 -2 24 -12 9z"/>
<path d="M3186 2719 c2 -4 -2 -22 -9 -40 -8 -19 -22 -55 -31 -81 -13 -36 -23
-48 -38 -48 -19 0 -20 5 -15 79 l4 79 -36 4 c-30 2 -36 0 -37 -17 -2 -24 -40
-155 -60 -205 -8 -19 -16 -50 -19 -69 -3 -19 -10 -42 -15 -52 -18 -32 -12 -54
14 -54 21 0 27 7 37 45 21 77 41 120 55 120 16 0 16 -2 15 -86 0 -45 4 -66 15
-75 24 -20 45 12 68 104 15 61 23 77 38 77 15 0 18 -9 19 -57 2 -124 1 -118
36 -118 19 -1 35 5 38 13 6 17 -4 372 -11 384 -3 5 -21 8 -39 6 -19 -1 -32 -5
-29 -9z"/>
<path d="M1655 2705 c-16 -7 -23 -14 -14 -14 8 -1 24 6 35 14 24 18 18 18 -21
0z"/>
<path d="M2551 2707 c-6 -8 -12 -35 -12 -60 -1 -26 -7 -47 -13 -47 -6 0 -5 -4
2 -9 10 -6 10 -10 -3 -21 -23 -19 -37 -1 -38 49 -1 22 -5 41 -9 41 -4 0 -8 10
-10 22 -2 14 -11 22 -26 23 -30 2 -38 -10 -46 -75 -10 -77 -13 -94 -22 -132
-4 -18 -6 -48 -5 -65 1 -18 -2 -33 -6 -33 -4 0 -9 -10 -10 -22 -1 -13 -3 -42
-5 -65 -3 -36 -1 -40 15 -32 9 5 17 7 17 3 0 -3 7 -1 15 6 12 10 17 28 29 115
3 24 35 27 46 5 4 -8 16 -42 25 -75 10 -33 20 -54 22 -47 3 6 11 12 18 12 15
0 21 15 29 70 4 19 8 49 11 65 2 17 7 55 11 85 3 30 8 58 10 61 2 4 6 36 9 73
6 65 5 66 -18 66 -14 0 -30 -6 -36 -13z"/>
<path d="M3370 2711 c-29 -9 -30 -25 -4 -164 l17 -89 -28 -59 c-16 -32 -26
-61 -24 -64 3 -2 16 -6 29 -7 19 -2 28 6 47 45 13 26 28 47 34 47 6 0 8 4 5 8
-2 4 20 59 51 122 79 164 77 157 45 165 -15 4 -28 3 -29 -2 -15 -40 -52 -88
-68 -88 -16 0 -21 9 -25 44 -5 48 -11 53 -50 42z"/>
<path d="M1770 2691 c-39 -13 -42 -16 -20 -19 14 -2 28 -9 31 -14 10 -17 48
10 46 32 -1 11 -4 19 -7 19 -3 -1 -25 -9 -50 -18z"/>
<path d="M2167 2664 c-41 -27 -70 -68 -88 -124 -7 -19 -17 -38 -23 -42 -8 -6
-8 -8 1 -8 8 0 9 -9 3 -29 -4 -16 -7 -53 -6 -83 7 -177 170 -144 236 48 36
102 29 203 -15 242 -33 28 -60 27 -108 -4z m69 -59 c13 -51 -2 -191 -26 -239
-18 -39 -26 -46 -50 -46 -25 0 -30 5 -35 33 -8 41 0 143 13 177 5 14 10 29 10
33 0 4 5 21 12 37 10 23 19 30 41 30 22 0 30 -6 35 -25z"/>
<path d="M2189 2503 c-6 -16 -11 -38 -11 -50 0 -13 -3 -23 -7 -23 -3 0 -7 -14
-8 -30 -5 -76 29 -5 42 88 7 48 0 55 -16 15z"/>
<path d="M2151 2484 c0 -11 3 -14 6 -6 3 7 2 16 -1 19 -3 4 -6 -2 -5 -13z"/>
<path d="M2511 2664 c0 -11 3 -14 6 -6 3 7 2 16 -1 19 -3 4 -6 -2 -5 -13z"/>
<path d="M3291 2568 c1 -62 5 -126 10 -143 6 -22 7 -12 4 34 -2 41 0 59 6 50
7 -11 9 -9 9 9 0 13 -3 21 -7 19 -5 -3 -7 28 -5 69 2 48 0 74 -7 74 -7 0 -11
-38 -10 -112z"/>
<path d="M1920 2663 c-8 -4 -35 -15 -60 -26 -25 -11 -49 -19 -53 -18 -5 1 -6
-3 -2 -9 4 -6 2 -32 -4 -58 -8 -35 -41 -290 -41 -318 0 -8 55 1 65 11 6 5 9
25 8 43 -4 82 40 128 52 55 9 -50 27 -103 36 -103 4 0 19 14 33 30 23 28 24
33 11 63 -26 64 -27 135 -1 120 6 -3 8 -3 4 2 -4 4 5 23 20 43 37 48 39 124 3
153 -23 19 -43 22 -71 12z m26 -109 c2 -63 -58 -131 -81 -93 -4 6 -4 40 0 75
l7 65 36 -3 c36 -3 37 -4 38 -44z"/>
<path d="M1905 2560 c3 -5 8 -10 11 -10 2 0 4 5 4 10 0 6 -5 10 -11 10 -5 0
-7 -4 -4 -10z"/>
<path d="M3590 2660 c0 -22 -174 -362 -192 -374 -17 -12 -17 -14 -3 -20 28
-11 34 -7 55 34 11 22 25 40 31 40 6 0 7 5 4 10 -3 6 5 31 19 58 60 114 117
243 111 252 -8 13 -25 13 -25 0z"/>
<path d="M1316 2638 c3 -4 9 -8 15 -8 5 0 9 4 9 8 0 5 -7 9 -15 9 -8 0 -12 -4
-9 -9z"/>
<path d="M1645 2624 c-52 -9 -84 -19 -92 -31 -20 -27 -16 -33 23 -33 l36 0 -6
-53 c-3 -29 -7 -59 -10 -67 -3 -8 -7 -42 -10 -75 -3 -33 -8 -81 -12 -107 -4
-27 -3 -48 2 -49 5 0 16 -2 24 -4 21 -4 35 15 36 50 1 30 15 127 36 257 10 61
13 66 39 72 17 3 29 12 29 21 0 8 0 18 1 22 1 12 -11 11 -96 -3z"/>
<path d="M1415 2588 c-60 -21 -93 -55 -110 -114 -9 -31 -17 -68 -18 -82 -2
-27 3 -30 86 -47 24 -5 27 -10 27 -44 0 -49 -21 -71 -66 -71 -27 0 -37 -5 -46
-26 -10 -20 -9 -27 2 -34 17 -10 64 -3 103 17 15 8 31 12 36 9 4 -3 8 0 8 7 1
20 41 88 45 76 2 -6 3 10 3 35 -1 54 -24 84 -71 92 -40 7 -46 16 -39 55 10 50
29 71 67 72 23 1 34 6 35 17 1 8 3 22 5 30 4 18 -27 22 -67 8z"/>
<path d="M3332 2560 c0 -14 2 -19 5 -12 2 6 2 18 0 25 -3 6 -5 1 -5 -13z"/>
<path d="M587 2548 c-6 -4 -15 -4 -21 -1 -5 3 -6 1 -2 -5 4 -6 30 -11 59 -10
63 1 87 6 87 19 0 11 -105 8 -123 -3z"/>
<path d="M1139 2546 c-20 -7 -42 -12 -50 -11 -8 2 -15 -7 -15 -21 -1 -13 -14
-61 -29 -106 -15 -46 -30 -96 -32 -113 -3 -16 -9 -38 -14 -47 -5 -10 -11 -30
-13 -45 -2 -15 -7 -43 -11 -61 -7 -32 -7 -32 28 -30 19 2 33 6 31 9 -2 4 -1
21 3 39 4 25 14 36 41 47 46 19 62 11 62 -31 0 -32 2 -34 27 -27 30 8 39 31
38 103 0 27 2 48 5 48 9 0 8 145 -1 163 -6 11 -6 17 0 17 6 0 9 6 7 13 -3 6
-7 24 -10 40 -7 30 -15 32 -67 13z m2 -103 c13 -169 10 -183 -41 -183 -30 0
-44 25 -29 53 5 9 11 28 13 44 7 47 27 93 42 93 8 0 14 -3 15 -7z"/>
<path d="M1548 2513 c7 -3 16 -2 19 1 4 3 -2 6 -13 5 -11 0 -14 -3 -6 -6z"/>
<path d="M2332 2495 c0 -16 2 -22 5 -12 2 9 2 23 0 30 -3 6 -5 -1 -5 -18z"/>
<path d="M1440 2500 c-8 -5 -12 -11 -9 -14 2 -3 11 -1 19 4 8 5 12 11 9 14 -2
3 -11 1 -19 -4z"/>
<path d="M1005 2481 c-3 -5 -2 -12 3 -15 5 -3 9 1 9 9 0 17 -3 19 -12 6z"/>
<path d="M856 2445 c4 -8 9 -15 13 -15 9 0 35 -49 36 -67 0 -7 5 -12 10 -10
13 3 10 12 -21 65 -24 40 -50 59 -38 27z"/>
<path d="M3157 2373 c-2 -5 -7 -25 -11 -45 -7 -36 -33 -57 -55 -44 -5 3 -7 -3
-4 -14 7 -27 39 -25 57 3 15 23 33 107 23 107 -3 0 -8 -3 -10 -7z"/>
<path d="M2870 2351 c-6 -12 -15 -19 -21 -16 -5 4 -8 1 -7 -5 5 -20 -46 -51
-98 -59 -40 -7 -45 -10 -26 -16 12 -4 22 -12 22 -18 0 -7 4 -7 12 1 7 7 20 12
29 12 34 0 123 99 106 117 -3 2 -10 -5 -17 -16z"/>
<path d="M3012 2334 c-7 -7 -12 -16 -12 -19 0 -3 0 -9 0 -14 0 -5 -10 -11 -22
-13 -13 -2 -24 -11 -26 -22 -3 -13 0 -16 10 -10 7 5 20 9 28 9 8 0 20 17 28
39 14 44 13 50 -6 30z"/>
<path d="M1241 2324 c0 -11 3 -14 6 -6 3 7 2 16 -1 19 -3 4 -6 -2 -5 -13z"/>
<path d="M1270 2321 c0 -15 24 -28 63 -34 20 -3 37 -2 37 2 0 12 -29 35 -36
28 -3 -3 -19 -1 -35 3 -16 5 -29 5 -29 1z"/>
<path d="M3297 2303 c-4 -6 -20 -10 -36 -9 -23 2 -27 -2 -23 -16 5 -22 60 -25
68 -3 8 19 0 43 -9 28z"/>
<path d="M2252 2288 c2 -7 -4 -12 -12 -10 -8 2 -12 0 -8 -4 14 -14 -32 -35
-87 -41 -43 -5 -55 -3 -55 8 0 11 -2 11 -10 -1 -11 -18 7 -43 27 -36 7 3 13 1
13 -5 0 -6 4 -7 10 -4 5 3 19 8 30 10 42 8 120 78 100 90 -6 4 -9 1 -8 -7z"/>
<path d="M650 2279 c0 -5 5 -7 10 -4 6 3 10 8 10 11 0 2 -4 4 -10 4 -5 0 -10
-5 -10 -11z"/>
<path d="M1237 2228 c-2 -29 -1 -60 5 -68 8 -13 9 -13 5 0 -5 21 13 83 27 93
8 5 7 10 -4 17 -25 16 -27 12 -33 -42z"/>
<path d="M2537 2259 c-22 -13 -14 -27 15 -25 13 1 24 8 26 19 4 19 -14 22 -41
6z"/>
<path d="M2360 2250 c1 -16 18 -28 41 -27 38 3 27 34 -12 33 -16 -1 -29 -3
-29 -6z"/>
<path d="M1943 2220 c-33 -15 -43 -30 -20 -30 14 0 64 37 57 42 -3 2 -20 -3
-37 -12z"/>
<path d="M1796 2201 c-33 -7 -45 -26 -21 -34 8 -4 15 -2 15 4 0 6 6 9 12 7 12
-4 38 14 38 26 0 7 -2 6 -44 -3z"/>
<path d="M1590 2173 c-45 -15 -46 -15 -25 -23 26 -9 55 -1 55 16 0 15 -5 16
-30 7z"/>
<path d="M1080 2160 c0 -5 7 -7 15 -4 8 4 15 8 15 10 0 2 -7 4 -15 4 -8 0 -15
-4 -15 -10z"/>
<path d="M1340 2139 c-30 -4 -62 -6 -70 -3 -8 3 -11 2 -8 -2 4 -4 3 -16 -3
-27 -6 -10 -7 -17 -2 -14 4 3 25 8 47 11 40 6 132 45 106 44 -8 0 -40 -4 -70
-9z"/>
<path d="M1117 2093 c7 -17 25 -16 49 2 18 14 17 15 -17 13 -26 -1 -35 -6 -32
-15z"/>
<path d="M962 2069 c-13 -5 -21 -13 -18 -18 8 -12 59 2 64 17 4 14 -13 15 -46
1z"/>
</g>
</svg>
